<?xml version="1.0" encoding="UTF-8" standalone="no"?>
<!-- Created with Inkscape (http://www.inkscape.org/) -->

<svg
   width="100mm"
   height="135mm"
   viewBox="0 0 100 135"
   version="1.1"
   id="svg1"
   inkscape:version="1.4.3 (0d15f75, 2025-12-25)"
   sodipodi:docname="default_account_icon.svg"
   xmlns:inkscape="http://www.inkscape.org/namespaces/inkscape"
   xmlns:sodipodi="http://sodipodi.sourceforge.net/DTD/sodipodi-0.dtd"
   xmlns="http://www.w3.org/2000/svg"
   xmlns:svg="http://www.w3.org/2000/svg">
  <sodipodi:namedview
     id="namedview1"
     pagecolor="#505050"
     bordercolor="#ffffff"
     borderopacity="1"
     inkscape:showpageshadow="0"
     inkscape:pageopacity="0"
     inkscape:pagecheckerboard="1"
     inkscape:deskcolor="#505050"
     inkscape:document-units="mm"
     inkscape:zoom="1.4702524"
     inkscape:cx="121.06765"
     inkscape:cy="212.54854"
     inkscape:window-width="2560"
     inkscape:window-height="1369"
     inkscape:window-x="-8"
     inkscape:window-y="-8"
     inkscape:window-maximized="1"
     inkscape:current-layer="layer1" />
  <defs
     id="defs1" />
  <g
     inkscape:label="Layer 1"
     inkscape:groupmode="layer"
     id="layer1">
    <rect
       style="fill:currentColor;stroke-width:0.564999"
       id="rect1"
       width="100"
       height="65"
       x="0"
       y="70"
       rx="7" />
    <path
       id="path1"
       style="fill:currentColor;fill-opacity:1;stroke-width:0.564999"
       d="M 50.000049 0 A 32 32 0 0 0 17.999935 32.000114 A 32 32 0 0 0 50.000049 64.000228 A 32 32 0 0 0 82.000163 32.000114 A 32 32 0 0 0 50.000049 0 z M 24.237797 27.882019 L 43.526542 27.882019 C 43.723596 27.882019 43.882076 28.041016 43.882076 28.23807 L 43.882076 32.196484 L 56.382088 32.196484 L 56.382088 28.23807 C 56.382088 28.041016 56.540569 27.882019 56.737622 27.882019 L 76.026367 27.882019 C 76.223421 27.882019 76.382418 28.041016 76.382418 28.23807 L 76.382418 37.526392 C 76.382418 37.723445 76.223421 37.881925 76.026367 37.881925 L 56.737622 37.881925 C 56.540569 37.881925 56.382088 37.723445 56.382088 37.526392 L 56.382088 33.298226 L 43.882076 33.298226 L 43.882076 37.526392 C 43.882076 37.723445 43.723596 37.881925 43.526542 37.881925 L 24.237797 37.881925 C 24.040744 37.881925 23.882263 37.723445 23.882263 37.526392 L 23.882263 28.23807 C 23.882263 28.041016 24.040744 27.882019 24.237797 27.882019 z " />
  </g>
  <g
     inkscape:groupmode="layer"
     id="layer2"
     inkscape:label="Layer 2" />
</svg>
